PathFileType	4	(X/Y/Z)	2_coords_data.trc
DataRate	CameraRate	NumFrames	NumMarkers	Units	OrigDataRate	OrigDataStartFrame	OrigNumFrames
30.0	30.0	7	21	m	30.0	47	65
Frame#	Time	THUMB_TIP	THUMB_IP	THUMB_MCP	THUMB_CMC	INDEX_TIP	INDEX_DIP	INDEX_PIP	INDEX_MCP	MIDDLE_TIP	MIDDLE_DIP	MIDDLE_PIP	MIDDLE_MCP	RING_TIP	RING_DIP	RING_PIP	RING_MCP	PINKY_TIP	PINKY_DIP	PINKY_PIP	PINKY_MCP	WRIST
X1	Y1	Z1	X2	Y2	Z2	X3	Y3	Z3	X4	Y4	Z4	X5	Y5	Z5	X6	Y6	Z6	X7	Y7	Z7	X8	Y8	Z8	X9	Y9	Z9	X10	Y10	Z10	X11	Y11	Z11	X12	Y12	Z12	X13	Y13	Z13	X14	Y14	Z14	X15	Y15	Z15	X16	Y16	Z16	X17	Y17	Z17	X18	Y18	Z18	X19	Y19	Z19	X20	Y20	Z20	X21	Y21	Z21
45	1.5333333333333266	0.5029557149995798	-0.010637453015650666	-0.16814286416579	0.49601053251626026	-0.016354265543767288	-0.14699853880904806	0.4832717095631817	-0.02570572949235117	-0.12018263845518234	0.47668808290269327	-0.028446713843593652	-0.07614818756975017	0.5688789228035233	0.01636268055342527	-0.16757535444397514	0.5529945801958116	0.01652355900218838	-0.15887697654659916	0.5311299883149452	0.017996751261627808	-0.14655710806313393	0.4978442328916305	0.010499621339238319	-0.12107206101930656	0.5855574567246382	0.021532838176546165	-0.14618991088952027	0.5690226286974844	0.025333520204161353	-0.13985317054156443	0.5430180482005534	0.03083757539963783	-0.12790006552304367	0.5064684522617582	0.021762914741675132	-0.10385998458196466	0.5890288732271223	0.02743554313851526	-0.1244864513179113	0.5728356922829143	0.03080022375521063	-0.11731290162088015	0.5505014360078292	0.03415264205367541	-0.10681898589837979	0.5165431927335662	0.024115641378437913	-0.0873044486204616	0.5880638919742034	0.034984671337860096	-0.09745021696715994	0.5728860323780642	0.03132534079336291	-0.09043296123247302	0.5537632718073242	0.027333418758475725	-0.08273902819263379	0.5217926563866533	0.01706335372190626	-0.06957510154561064	0.4622830810018609	-0.023011742144276925	-0.051989820119430985
46	1.5666666666666598	0.5055191245995394	-0.009873923442920707	-0.1671322065151883	0.49794424568002194	-0.015659138245056048	-0.14622401436359833	0.4845429708366825	-0.025260049190401257	-0.11982234128038588	0.4770856817992129	-0.028273743317316358	-0.07594528021288693	0.5694720793798154	0.01600583574046699	-0.16586121137601872	0.5533773430270781	0.016670312140892873	-0.1575836554052535	0.5312664425489932	0.018687669646141436	-0.14579178609864035	0.4975807164369836	0.011342343285921319	-0.120792703496102	0.5854731257883847	0.02081413406738386	-0.1446542703777945	0.5689488518106525	0.0250969518781482	-0.1386039942594146	0.5429082968264634	0.03139011646376766	-0.12712814459092697	0.5060375378340085	0.02263638333402096	-0.10346240545999175	0.5886995629402569	0.0268614910749716	-0.1231931124504203	0.5725399883384801	0.030854981760289224	-0.11627067206888614	0.5501928097116222	0.03490100518415884	-0.10605239037024372	0.5160225405921841	0.025076564261234835	-0.08680157472889616	0.5877052624034126	0.03520826394928256	-0.09710300715471842	0.5724878053380336	0.03180241053297028	-0.09004402968132064	0.5533266715191609	0.028068177949486683	-0.08231625660056163	0.5213355920978823	0.017938340565653355	-0.0690935230314943	0.4622830810018609	-0.023011742144276925	-0.051989820119430985
47	1.599999999999993	0.5076379300145342	-0.009434510104393445	-0.1662801042765336	0.4995287833512289	-0.015228770126254898	-0.14557579817388766	0.4855787165030639	-0.024960764739837327	-0.11950850226938448	0.4774067841205921	-0.028148570780486604	-0.07577124796846246	0.5700824219264906	0.01587787122897011	-0.1643853133951037	0.5538385220457998	0.01684765630761531	-0.1564357704165843	0.5315366499511729	0.019199981127522747	-0.14507342461932243	0.49749960421775313	0.01195559521351397	-0.12052480990341619	0.585557110052156	0.02032684530074569	-0.14329957344579225	0.569036115452773	0.024956806801156084	-0.13750128111512505	0.542960557944308	0.031763959032191647	-0.12640454604906892	0.5058067151850538	0.02327270688185845	-0.10308848878931576	0.5885319858446274	0.02637069711363893	-0.12200204339464416	0.5724034382302765	0.030836607711889785	-0.11529938762397757	0.5500467059445773	0.03542796169552198	-0.10533565493474106	0.5156918328897879	0.025783108564801704	-0.0863240705852939	0.5874755548557231	0.03529496822188338	-0.09672058960042262	0.5722218030318914	0.03211491866704408	-0.08963466410506804	0.553027064623671	0.028587343802086274	-0.08189320093509111	0.5210189323883905	0.018586134618087335	-0.06861394129207266	0.4622830810018609	-0.023011742144276925	-0.051989820119430985
48	1.6333333333333262	0.5093355985033363	-0.009127835552699026	-0.16557067722297913	0.5007998556766812	-0.014932333947184184	-0.1450414567607789	0.4864045704309659	-0.024737600929285786	-0.11924509069685046	0.4776515326785247	-0.028068433760734535	-0.0756311034593451	0.5707704063089796	0.01584838165999125	-0.16312069049097006	0.5544068523291599	0.0169601000438917	-0.15543966299561324	0.5319594158600132	0.019517133607310333	-0.1444131491168219	0.4976237954359814	0.012337076011450954	-0.12026469084270108	0.5858441279347233	0.020087973310862872	-0.1421589169868236	0.569303112365684	0.024846464379933986	-0.13652406413245666	0.5431764833915982	0.03196744368421722	-0.12574907168705607	0.5057888447904432	0.023673844102986563	-0.10273758310383674	0.5886011247945149	0.025941584974943144	-0.12091365686935851	0.5724868114299462	0.030712683809125285	-0.11438943119093897	0.5501031054605319	0.03569565839774769	-0.10467760075976096	0.5155805645410619	0.026203503257849037	-0.08589425725378153	0.5874355202137764	0.03516723908967767	-0.09631445990974208	0.5721537455444461	0.03216040306595802	-0.0892133121094022	0.5529374983990989	0.02876970890338404	-0.08146405035457516	0.5208748046735108	0.018961895591307343	-0.06817217614156135	0.4622830810018609	-0.023011742144276925	-0.051989820119430985
49	1.6666666666666594	0.5106142991543584	-0.008804759070955348	-0.1649831569068974	0.501773957113086	-0.01466879711858693	-0.1446002863934186	0.4870372408575284	-0.024549432959150574	-0.11902642807306818	0.47783959525364256	-0.028030885113075832	-0.07551582239760968	0.5715966634428757	0.016050359377142276	-0.16208526769462261	0.5551492176158626	0.017093730082042735	-0.15457574684841524	0.5325913215335001	0.019638761478105504	-0.14377417416058946	0.49799627494613524	0.012496968703012534	-0.11998733659071276	0.586404792843836	0.020184622401815844	-0.14123246469526113	0.5698176018117971	0.02489189266801939	-0.1356911020192071	0.5436136565006835	0.03202330586509916	-0.1251125507977645	0.5060305212161448	0.023828849216325332	-0.102385766084228	0.5889709994210852	0.025690837397380095	-0.11996056677381617	0.5728368599474727	0.030550201994065773	-0.11355150138465853	0.5504031455439042	0.03569246684476035	-0.10404016345225209	0.5157231949839088	0.02633034754299579	-0.08548288495200285	0.5876486303616072	0.03484437124210116	-0.09575017863814483	0.5723300190419821	0.031957872290827805	-0.08867852599943638	0.5530751483867744	0.028668796523024676	-0.08098151647333651	0.5209393534705631	0.01903698304716328	-0.0677375629371213	0.4622830810018609	-0.023011742144276925	-0.051989820119430985
50	1.6999999999999926	0.5114914263918976	-0.008428404600467232	-0.16452213631904045	0.5024664336968285	-0.014384737869499342	-0.14424723555868718	0.48749024082194364	-0.02437022752120621	-0.11885385761502038	0.47797374100814455	-0.028030740554465416	-0.07542659802352292	0.5725488599760491	0.01633039060657493	-0.16121630208339355	0.5560436039067431	0.017175817688133588	-0.15380942857722324	0.5333994223329039	0.019532946533356133	-0.14314665138467075	0.49855391688658524	0.012475906545033166	-0.11970256831892079	0.5872103640084188	0.020587126616043228	-0.14045345858348335	0.5705470548428611	0.02506065186188544	-0.13494694430239318	0.5442329543776876	0.031978324210521714	-0.12450072603999435	0.5064942825100449	0.02376344098597305	-0.10204062229416488	0.5896082057136014	0.02567049860241566	-0.11907776148856608	0.5734086030942438	0.030403389537388636	-0.11273957417888869	0.5508930355324868	0.03551243146735228	-0.10340539575066976	0.5160654675677712	0.026224103219548933	-0.08508905599557215	0.5880735549788959	0.03445780674345644	-0.09498597153430799	0.5727150998220429	0.03159044955356538	-0.08799339561834452	0.5534084549978753	0.02835531621717735	-0.08040396896481972	0.5211634499058982	0.018880247031006547	-0.06731327908476936	0.4622830810018609	-0.023011742144276925	-0.051989820119430985
51	1.7333333333333258	0.5120194731446877	-0.008019347050592707	-0.16419238727972602	0.5028999195973931	-0.014098726632431391	-0.14399647464875154	0.4877809248154129	-0.02421903908616152	-0.1187414697463301	0.47804944902423546	-0.0280334972287839	-0.07537514308607551	0.5734294613714682	0.016707576272634195	-0.16051561609263387	0.556887549400447	0.01728765291285239	-0.1531651970954297	0.5341857641780787	0.0194027598701646	-0.14257439432715058	0.49913107984149907	0.012410657680335668	-0.11942454104403566	0.5880166202960126	0.021272753370604747	-0.1398520044089453	0.5712722791289253	0.025429159441596294	-0.13434280052333641	0.5448421808267653	0.03197157924671434	-0.12394779225822378	0.5069934526775637	0.023629863504440407	-0.10172083841918111	0.5902813350558763	0.025948963742395303	-0.11833654975009156	0.5739998516210317	0.030412599507795735	-0.11201284411852391	0.5513838166862132	0.035341335763318216	-0.102825760699366	0.5164491958566648	0.02605385634030588	-0.0847140013297516	0.5885309988625369	0.034109996524848474	-0.09421573415544116	0.573131619636082	0.031243554278600483	-0.08731337019164209	0.5537696688727684	0.028019298801972625	-0.07986145377635301	0.5214245318202368	0.01864418383013211	-0.06694701304832573	0.4622830810018609	-0.023011742144276925	-0.051989820119430985
